<svg width="16" height="17" viewBox="0 0 16 17" fill="none" xmlns="http://www.w3.org/2000/svg">
<path d="M4.75781 1.47656H4.59375C4.68398 1.47656 4.75781 1.40273 4.75781 1.3125V1.47656H10.9922V1.3125C10.9922 1.40273 11.066 1.47656 11.1562 1.47656H10.9922V2.95312H12.4688V1.3125C12.4688 0.588574 11.8802 0 11.1562 0H4.59375C3.86982 0 3.28125 0.588574 3.28125 1.3125V2.95312H4.75781V1.47656ZM15.0938 2.95312H0.65625C0.293262 2.95312 0 3.24639 0 3.60938V4.26562C0 4.35586 0.0738281 4.42969 0.164062 4.42969H1.40273L1.90928 15.1553C1.94209 15.8546 2.52041 16.4062 3.21973 16.4062H12.5303C13.2316 16.4062 13.8079 15.8566 13.8407 15.1553L14.3473 4.42969H15.5859C15.6762 4.42969 15.75 4.35586 15.75 4.26562V3.60938C15.75 3.24639 15.4567 2.95312 15.0938 2.95312ZM12.3724 14.9297H3.37764L2.88135 4.42969H12.8687L12.3724 14.9297Z" fill="#E40A0A"/>
</svg>
