<svg width="19" height="19" viewBox="0 0 19 19" fill="none" xmlns="http://www.w3.org/2000/svg">
<path fill-rule="evenodd" clip-rule="evenodd" d="M14.8694 0.19436C15.1792 0.0660436 15.5112 0 15.8465 0C16.1818 0 16.5138 0.0660436 16.8236 0.19436C17.1334 0.322677 17.4149 0.510753 17.652 0.747852C17.8891 0.984951 18.0772 1.26643 18.2055 1.57621C18.3338 1.886 18.3998 2.21802 18.3998 2.55333C18.3998 2.88863 18.3338 3.22066 18.2055 3.53044C18.0772 3.84023 17.8891 4.1217 17.652 4.3588L11.925 10.0858C11.5312 10.4796 11.0307 10.7471 10.4854 10.8562C10.4854 10.8562 10.4854 10.8562 10.4854 10.8562L7.83739 11.3862C7.60791 11.4321 7.37065 11.3604 7.20513 11.1949C7.03961 11.0294 6.96773 10.7922 7.01357 10.5627L7.54258 7.9147C7.65203 7.36921 7.92063 6.86774 8.3143 6.47459M15.8465 1.4C15.6951 1.4 15.5451 1.42983 15.4052 1.48779C15.2652 1.54575 15.1381 1.6307 15.031 1.7378L13.9125 2.85627L15.544 4.48694L16.662 3.36885C16.7691 3.26176 16.8541 3.13461 16.912 2.99469C16.97 2.85476 16.9998 2.70479 16.9998 2.55333C16.9998 2.40187 16.97 2.25189 16.912 2.11197C16.8541 1.97204 16.7691 1.8449 16.662 1.7378C16.5549 1.63071 16.4278 1.54575 16.2879 1.48779C16.1479 1.42983 15.998 1.4 15.8465 1.4ZM14.554 5.47688L12.9226 3.84622L9.30399 7.4648C9.10592 7.66259 8.97048 7.91492 8.91537 8.18936C8.91536 8.18942 8.91538 8.18929 8.91537 8.18936L8.59213 9.80739L10.2106 9.48344C10.4853 9.42851 10.7369 9.29402 10.935 9.09585L14.554 5.47688Z" fill="black"/>
<path fill-rule="evenodd" clip-rule="evenodd" d="M2.7 3.4C2.35522 3.4 2.02456 3.53696 1.78076 3.78076C1.53696 4.02456 1.4 4.35522 1.4 4.7V15.7C1.4 16.0448 1.53696 16.3754 1.78076 16.6192C2.02456 16.863 2.35522 17 2.7 17H13.7C14.0448 17 14.3754 16.863 14.6192 16.6192C14.863 16.3754 15 16.0448 15 15.7V12.7C15 12.3134 15.3134 12 15.7 12C16.0866 12 16.4 12.3134 16.4 12.7V15.7C16.4 16.4161 16.1155 17.1028 15.6092 17.6092C15.1028 18.1155 14.4161 18.4 13.7 18.4H2.7C1.98392 18.4 1.29716 18.1155 0.790812 17.6092C0.284463 17.1028 0 16.4161 0 15.7V4.7C0 3.98392 0.284463 3.29716 0.790812 2.79081C1.29716 2.28446 1.98392 2 2.7 2H5.7C6.0866 2 6.4 2.3134 6.4 2.7C6.4 3.0866 6.0866 3.4 5.7 3.4H2.7Z" fill="black"/>
</svg>
