<svg width="22" height="16" viewBox="0 0 22 16" fill="none" xmlns="http://www.w3.org/2000/svg">
<path d="M21.5191 7.66187C20.6737 5.47518 19.2061 3.58413 17.2977 2.22244C15.3893 0.860743 13.1237 0.0880993 10.7809 0C8.43819 0.0880993 6.1726 0.860743 4.26418 2.22244C2.35577 3.58413 0.888185 5.47518 0.0428192 7.66187C-0.0142731 7.81979 -0.0142731 7.99271 0.0428192 8.15063C0.888185 10.3373 2.35577 12.2284 4.26418 13.5901C6.1726 14.9518 8.43819 15.7244 10.7809 15.8125C13.1237 15.7244 15.3893 14.9518 17.2977 13.5901C19.2061 12.2284 20.6737 10.3373 21.5191 8.15063C21.5762 7.99271 21.5762 7.81979 21.5191 7.66187ZM10.7809 14.375C6.97157 14.375 2.94657 11.5503 1.48751 7.90625C2.94657 4.26219 6.97157 1.4375 10.7809 1.4375C14.5903 1.4375 18.6153 4.26219 20.0744 7.90625C18.6153 11.5503 14.5903 14.375 10.7809 14.375Z" fill="black"/>
<path d="M10.7813 3.59375C9.92832 3.59375 9.09454 3.84667 8.38535 4.32054C7.67617 4.7944 7.12342 5.46792 6.79702 6.25593C6.47062 7.04393 6.38522 7.91103 6.55162 8.74758C6.71801 9.58412 7.12874 10.3525 7.73185 10.9556C8.33497 11.5588 9.10338 11.9695 9.93992 12.1359C10.7765 12.3023 11.6436 12.2169 12.4316 11.8905C13.2196 11.5641 13.8931 11.0113 14.367 10.3021C14.8408 9.59296 15.0938 8.75918 15.0938 7.90625C15.0938 6.7625 14.6394 5.6656 13.8306 4.85685C13.0219 4.0481 11.925 3.59375 10.7813 3.59375ZM10.7813 10.7812C10.2126 10.7812 9.65678 10.6126 9.18399 10.2967C8.7112 9.98082 8.3427 9.5318 8.1251 9.00646C7.9075 8.48113 7.85056 7.90306 7.96149 7.34537C8.07243 6.78767 8.34624 6.27539 8.74832 5.87332C9.1504 5.47124 9.66267 5.19742 10.2204 5.08649C10.7781 4.97556 11.3561 5.03249 11.8815 5.2501C12.4068 5.4677 12.8558 5.83619 13.1717 6.30899C13.4876 6.78178 13.6563 7.33763 13.6563 7.90625C13.6563 8.66875 13.3533 9.40001 12.8142 9.93918C12.275 10.4783 11.5437 10.7812 10.7813 10.7812Z" fill="black"/>
</svg>
